# xmcd
#
# Track frame offsets:
#	150
#	10009
#	25630
#	40502
#	57562
#	80797
#	93715
#	107297
#	117572
#	131070
#	144937
#	157357
#	174465
#	185575
#	201020
#	216200
#
# Disc length: 3152 seconds
#
# Revision: 2
# Processed by: cddbd v1.5.2PL0 Copyright (c) Steve Scherf et al.
# Submitted via: audiograbber 1.83.01
#
DISCID=df0c4e10
DTITLE=MH1105 Monster Hits -  Male Country (MH)
DYEAR=2008
DGENRE=Karaoke
TTITLE0=Merle Haggard - The Legend Of Bonnie And Clyde (MH)
TTITLE1=George Strait - You Look So Good In Love (MH)
TTITLE2=George Jones - The Grand Tour (MH)
TTITLE3=Randy Travis - I Told You So (MH)
TTITLE4=Alabama - Take Me Down (MH)
TTITLE5=Michael Murphey - What's Forever For (MH)
TTITLE6=Conway Twitty - Happy Birthday Darlin' (MH)
TTITLE7=Waylon Jennings - The Wurlitzer Prize (I Don't Want To Get Over You) (M
TTITLE7=H)
TTITLE8=Larry Gatlin and The Gatlin Brothers - Houston (Means I'm One Day Close
TTITLE8=r To You) (MH)
TTITLE9=THe Bellamy Brothers - Do You Love As Good As You Look (MH)
TTITLE10=The Oak Ridge Boys - Trying To Love Two Women  (MH)
TTITLE11=Eddie Rabbitt - Step By Step (MH)
TTITLE12=Pride, Charlie - I'm Just Me (MH)
TTITLE13=Ronnie Milsap - There's No Gettin' Over Me (MH)
TTITLE14=Jerry Reed - She Got The Goldmine (I Got The Shaft) (MH)
TTITLE15=Willie Nelson - Angel Flying Too Close To The Ground (MH)
EXTD=
EXTT0=
EXTT1=
EXTT2=
EXTT3=
EXTT4=
EXTT5=
EXTT6=
EXTT7=
EXTT8=
EXTT9=
EXTT10=
EXTT11=
EXTT12=
EXTT13=
EXTT14=
EXTT15=
PLAYORDER=
